<svg width="512" height="512" viewBox="0 0 512 512" fill="none" xmlns="http://www.w3.org/2000/svg">
<path d="M193.663 90.0665C245.058 52.3175 270.856 51.8327 311.145 90.0665V379.348C311.145 379.348 282.926 431.419 254.132 428.526C225.337 425.633 193.663 379.348 193.663 379.348V90.0665Z" fill="#E2B637"/>
<path d="M138.719 204.105C162.852 218.566 84.2926 422.732 93.2661 445.098C102.24 467.465 145.381 465.098 218.239 451.284C291.096 437.471 232.958 78.1496 206.9 78.1495C177.639 78.1495 145.381 92.3955 145.381 92.3955C69.1744 113.685 43.9549 398.023 63.1644 398.263H86.8017C86.8017 398.263 114.587 189.643 138.719 204.105Z" fill="#FFDC3D"/>
<path d="M374.277 204.105C350.439 218.566 428.04 422.732 419.176 445.098C410.312 467.465 367.697 465.098 295.728 451.284C223.758 437.471 281.188 78.1496 306.928 78.1495C335.832 78.1495 367.697 92.3955 367.697 92.3955C442.974 113.685 467.886 398.023 448.911 398.263H425.562C425.562 398.263 398.115 189.643 374.277 204.105Z" fill="#FFDC3D"/>
</svg>
